<svg xmlns="http://www.w3.org/2000/svg" viewBox="0 0 60 60"><defs><style>.cls-1{fill:#37444f;}.cls-2{fill:#fff;}</style></defs><title>bh_logo_v2</title><g id="Layer_2" data-name="Layer 2"><g id="Layer_1-2" data-name="Layer 1"><circle class="cls-1" cx="30" cy="30" r="30"/><path class="cls-2" d="M45.23,35.81a9,9,0,0,0-2.3-3.13,11.22,11.22,0,0,0-3.61-2.1,17.6,17.6,0,0,0-4.76-1,10.21,10.21,0,0,0,3.79-1.11,10.65,10.65,0,0,0,5-5.35,9.14,9.14,0,0,0,.73-3.56c0-3.34-1.09-5.9-3.25-7.67S35.38,9.24,31,9.24h-3.5v.59H31q6.31,0,9.38,2.55a8.8,8.8,0,0,1,3.07,7.18,9.52,9.52,0,0,1-.65,3.4,8.91,8.91,0,0,1-2.1,3.17,11.25,11.25,0,0,1-3.77,2.36,15.35,15.35,0,0,1-5.64.92H27.47V30h5.16a19,19,0,0,1,5.23.68,11.84,11.84,0,0,1,4,2,8.85,8.85,0,0,1,3.45,7.2,10.87,10.87,0,0,1-.86,4.49A8.3,8.3,0,0,1,42,47.57a11.42,11.42,0,0,1-4,2,20.58,20.58,0,0,1-5.37.65h-5.1v.59h5.1a20.62,20.62,0,0,0,5.68-.71A11.94,11.94,0,0,0,42.49,48a8.83,8.83,0,0,0,2.64-3.43,11.49,11.49,0,0,0,.9-4.68A9.78,9.78,0,0,0,45.23,35.81Z"/><polygon class="cls-2" points="20.88 30 26.76 30 26.76 29.41 20.88 29.41 20.88 9.83 26.76 9.83 26.76 9.24 20.17 9.24 20.17 35.44 20.88 35.44 20.88 30"/><polygon class="cls-2" points="26.76 50.17 21.52 50.17 20.88 50.17 20.17 50.17 20.17 50.76 26.76 50.76 26.76 50.17"/></g></g></svg>