<svg xmlns="http://www.w3.org/2000/svg" viewBox="0 0 65.85 56.94"><defs><style>.cls-1{fill:#f05a28;stroke:#363b44;stroke-miterlimit:10;stroke-width:0.3px;}.cls-2{fill:#32434f;}</style></defs><title>bh_logo</title><g id="Layer_2" data-name="Layer 2"><g id="Layer_1-2" data-name="Layer 1"><path class="cls-1" d="M55.47.15V10.64H50.12V5.54h-35v5.1H9.69V.15Zm0,47.05v9.59H9.69V47.2h5.39v4.23h35V47.2Z"/><path class="cls-2" d="M20,28a7,7,0,0,0,4.56-6.83c0-4.93-3.85-8-10.23-8H0V43.94H14.94A13,13,0,0,0,23,41.65a7.24,7.24,0,0,0,3-6.12A7.2,7.2,0,0,0,20,28ZM5.41,18h8.34c3.74,0,5.75,1.42,5.75,3.88,0,2.7-2.12,4.31-5.89,4.31H5.41Zm0,21.17v-8.1h9.53c3.6,0,5.78,1.33,5.78,3.85s-2.18,4.25-6,4.25Z"/><polygon class="cls-2" points="65.85 13.19 60.46 13.19 60.46 26.34 45.13 26.34 45.13 13.19 39.69 13.19 39.69 43.95 45.13 43.95 45.13 31.39 60.46 31.39 60.46 43.95 65.85 43.95 65.85 13.19"/></g></g></svg>