<svg xmlns="http://www.w3.org/2000/svg" viewBox="0 0 65.85 56.64"><defs><style>.cls-1{fill:#9ad1aa;}.cls-2{fill:#fff;}</style></defs><title>bh_logo_light</title><g id="Layer_2" data-name="Layer 2"><g id="Layer_1-2" data-name="Layer 1"><path class="cls-1" d="M55.47,0V10.49H50.12V5.39h-35v5.1H9.69V0Zm0,47.06v9.58H9.69V47.06h5.39v4.22h35V47.06Z"/><path class="cls-2" d="M20,27.86A7,7,0,0,0,24.6,21c0-4.93-3.85-8-10.23-8H0V43.8H14.94A13,13,0,0,0,23,41.5a7.24,7.24,0,0,0,3-6.12,7.2,7.2,0,0,0-6-7.52Zm-14.63-10h8.34c3.74,0,5.75,1.42,5.75,3.88,0,2.7-2.12,4.31-5.89,4.31H5.41ZM5.41,39V30.9h9.53c3.6,0,5.78,1.33,5.78,3.85S18.54,39,14.71,39Z"/><polygon class="cls-2" points="65.85 13.04 60.46 13.04 60.46 26.19 45.13 26.19 45.13 13.04 39.69 13.04 39.69 43.8 45.13 43.8 45.13 31.24 60.46 31.24 60.46 43.8 65.85 43.8 65.85 13.04"/></g></g></svg>