<?xml version="1.0" encoding="utf-8"?>
<!-- Generator: Adobe Illustrator 22.1.0, SVG Export Plug-In . SVG Version: 6.00 Build 0)  -->
<svg version="1.1" id="Layer_1" xmlns="http://www.w3.org/2000/svg" xmlns:xlink="http://www.w3.org/1999/xlink" x="0px" y="0px"
	 viewBox="0 0 500 138.6" style="enable-background:new 0 0 500 138.6;" xml:space="preserve">
<style type="text/css">
	.st0{fill:#363B44;}
</style>
<title>dallas-skyline</title>
<g id="Layer_2_1_">
	<g id="Layer_1-2">
		<path class="st0" d="M494.6,138.6V137h-1v-2.1h-3.9v-1.6h-7.1v-16.5H468v2.4h-1.6v-11.1h-7.5v-3.8h-14.5v16H441v2.7h-2.3v-16.8
			h-2.8v-6.8h-5.2v4.9h-7.3v1.9h-1.9V76h-4.3v4h-6.7v-4H402v4h-2.1V59.9l0,0c0-3.8-0.8-6.8-1.9-6.8c-0.4,0-0.8,0.5-1.1,1.3h-4.6
			c-1.7-1.6-4.3-1.6-6,0h-11.2c-0.3-0.8-0.7-1.3-1.1-1.3c-1,0-1.8,3-1.9,6.8l0,0V127h-4.2v-25.7h-4.7V69.5h-25.7v28.2h-4.7v9.3H329
			v-4h-3.5v4h-0.9v9.1h-1.3v-1.8h-1.6V113h-1.5v-5.5h-0.8V107h-0.3V79.8h-4.4v-1.3h-6.5c-0.6-1.5-1.1-3.1-1.4-4.8
			c-0.1-0.8-0.2-1.7-0.3-2.5c0.2-0.1,0.4-0.3,0.4-0.6c0-0.3-0.2-0.6-0.5-0.7c0-0.8-0.1-1.5-0.1-2.3l0,0l0,0l0,0h-0.4l0,0l0,0l0,0
			c0,0.8-0.1,1.6-0.1,2.3c-0.3,0.1-0.5,0.3-0.5,0.7c0,0.3,0.2,0.5,0.4,0.6c-0.1,0.9-0.2,1.7-0.3,2.5c-0.2,1.6-0.7,3.2-1.3,4.8h-6.4
			v1.3h-4.8v51.3h-1.1v-5h-0.7V121h-4v-9.2h-5.8V60h-3.8v-5.3l-0.1-0.1l0,0l-1.6-1.6l0,0l-0.1-0.2l-0.2,0.2l-1.6,1.6l0,0l-0.1,0.1
			v2.2h-0.3v-0.2h-0.8V56h-0.9v0.6H271v0.2h-0.8v-0.5h-0.6V56h-0.2v0.3h-0.7v-2.4h-2.6v-2.5H265v-0.6h-0.5v-9.4l-0.1-0.1l-1.6-1.6
			l-0.2-0.2l-0.1,0.2l-1.6,1.6l-0.1,0.1v9.4h-0.5v0.6h-1.2v2.5h-2.6v3h-0.8v-1.2h-0.3v1.2h-0.8v-0.3h-1v0.3h-0.8v-0.8h-1v0.8h-0.3
			v-2.2l-0.1-0.1l0,0l-1.6-1.6l-0.1-0.2l-0.2,0.2l-1.5,1.6l0,0l-0.1,0.1V60h-3.8v39.1h-3.3v16.4h-2.3v3.3h-1.1V113h-4V77h-3.9V10.6
			h-1.3V7.8H226V5h-2.4V1.9h-5.9V0h-0.4v1.9h-2.6V1.5h-3v0.4h-3.5V5h-2.4v2.8h-2.3v2.8h-1.3v68.3l-1.4-3.4l-0.2-1.4l-0.8-0.3
			l-8.3-7.3h-2.3l-8.3,7.3L180,74l-0.2,1.4l-1.5,3.7l-0.2,1.6h-0.4v0.9h-0.5v16.1l0,0v-0.5H176v0.5h-2.5v2.6h-2.2v1h-1.2v-1.1h-1.3
			v-8.4H159v38h-2.1v-34h-1.1v-3.6h-1.4l-4.9-6.2V62.7c0.8-0.5,1.5-1.1,2.2-1.7c2.2-2.2,3.5-5.3,3.5-8.4l0,0
			c0-6.6-5.3-11.9-11.9-11.9l0,0c-6.6,0-11.9,5.3-11.9,11.9l0,0c0,3.2,1.3,6.2,3.5,8.4c0.6,0.6,1.2,1.1,1.9,1.5v26.1h-7.1v40.1H129
			v3.2h-0.9v-21.1h-10.4l-0.5-1.4V81.6h-0.1l-3.9-22.9h-8.6l-3.9,22.9h-0.1v17.6h-8.2v20.3h-0.8v7.6h-1.2v-5h-5.1v-6.4h-7.1v6.4h-4
			v-7h-4.4V99h-5.3V84.7H47.7v3.7h-2.9v4.4h-8.6v8.8H28v7.7h-5V122h-9v2.7H2.5v14H0l2.4-0.1H500l-0.2,0.1L494.6,138.6z M305.8,73.8
			c0.1-0.8,0.2-1.6,0.3-2.5l0,0c0.1,0.9,0.2,1.7,0.3,2.5c0.3,1.6,0.7,3.2,1.3,4.7h-3.3C305,77,305.5,75.4,305.8,73.8z M264,50.5
			l-1-1.1l1-1.1V50.5z M263,46.3l1-1v2.1L263,46.3z M263,43.1l1-1.1v2.1L263,43.1z M261.3,42.1l1,1l-1,1.1V42.1z M261.3,45.3l1,1
			l-1,1.1V45.3z M261.3,48.4l1,1.1l-1,1V48.4z M139.8,69.4h1.6v6.1h-1.6V69.4z M146.2,80.6V76h0.8v4.5L146.2,80.6z M147,75.6h-0.8
			v-6.2h0.8V75.6z M139.8,76.1h1.6v4.4h-1.6V76.1z M275.5,60l0.1-0.1l0.1,0.1H275.5z M274.8,58.4v-0.8l0.9-0.9L277,58l-1.3,1.3
			L274.8,58.4z M275.3,59.6l-0.4,0.4h-0.1v-1L275.3,59.6z M250,59.6l0.6-0.5v1h-0.1L250,59.6z M250.6,58.4l-0.9,0.9l-1.3-1.2
			l1.3-1.3l0.9,0.9V58.4z M249.8,60h-0.2H249.8L249.8,60z M276.4,60l-0.4-0.4l1-1.1V60H276.4z M277,57.5l-1-1.1l1-1.1V57.5z
			 M275.7,53.5l1.3,1.3l-1.3,1.3l-1.3-1.3L275.7,53.5z M274.3,55.3l1.1,1.1l-0.5,0.5l0,0h-0.5v-1.6H274.3z M251.1,56.9h-0.5l0,0
			l-0.6-0.5l1.1-1.1V56.9z M249.7,53.5l1.3,1.3l-1.3,1.3l-1.3-1.3L249.7,53.5z M248.3,55.3l1.1,1.1l-1.1,1.1V55.3z M248.3,58.5
			l1.1,1.1L249,60h-0.6L248.3,58.5z M147,68.8h-0.8v-4.7c0.3-0.1,0.5-0.1,0.8-0.2V68.8z M134,58.7v0.5l-0.3-0.5H134z M153,58.7
			c-0.1,0.2-0.2,0.3-0.3,0.5v-0.5H153z M146.2,62.7h0.8v0.7c-0.3,0.1-0.5,0.2-0.8,0.2V62.7z M139.8,62.7h1.6v1.1
			c-0.5-0.1-1.1-0.2-1.6-0.4V62.7z M151.4,60.6c-0.6,0.6-1.2,1.1-1.9,1.5v-1.4h1.5v-1.1h1.3C152.1,60,151.8,60.3,151.4,60.6
			L151.4,60.6z M153.3,58.2h-0.2v-1.5h0.8v-5.4c0.4,0.8,0.7,1.6,0.9,2.5C154.6,55.4,154.1,56.9,153.3,58.2L153.3,58.2z M148.9,49.2
			v-1.9h0.6c0.6,0.3,1.2,0.6,1.7,1c-0.4,0.3-0.9,0.6-1.4,0.9H148.9z M149.7,47v-0.7l0.5-0.3c0.4,0.3,0.8,0.6,1.2,0.9
			c0.2,0.2,0.4,0.4,0.7,0.6l-0.6,0.5C150.9,47.7,150.3,47.3,149.7,47L149.7,47z M149.7,45.8L149.7,45.8h0.1H149.7z M136.9,45.8h-0.1
			H136.9L136.9,45.8z M136.9,46.3V47c-0.6,0.3-1.2,0.7-1.8,1.1c-0.2-0.2-0.4-0.3-0.6-0.5c0.2-0.2,0.4-0.4,0.6-0.6
			c0.4-0.3,0.8-0.7,1.2-0.9L136.9,46.3z M137.2,47.3h0.6v1.9h-0.9c-0.5-0.3-1-0.5-1.4-0.9C136,48,136.6,47.6,137.2,47.3L137.2,47.3z
			 M150.6,49.2c0.3-0.2,0.6-0.4,0.9-0.6c0.2,0.2,0.5,0.4,0.7,0.6H150.6z M151.8,48.3c0.2-0.2,0.4-0.3,0.6-0.5c0.4,0.4,0.7,0.9,1,1.4
			h-0.6C152.4,48.9,152.1,48.6,151.8,48.3L151.8,48.3z M151.7,46.6c-0.4-0.3-0.7-0.6-1.1-0.8c0.3-0.2,0.5-0.3,0.8-0.5l0.1,0.1
			c0.5,0.5,0.9,1,1.3,1.5c-0.1,0.1-0.2,0.3-0.4,0.4C152.2,47.1,152,46.9,151.7,46.6L151.7,46.6z M150.2,45.5l-0.5-0.3v-1.1h-2.4
			c0.5-0.1,1.1-0.3,1.6-0.5c0.8,0.4,1.5,0.9,2.1,1.5C150.8,45.2,150.5,45.4,150.2,45.5L150.2,45.5z M146.4,43.9v-1.3
			c0.7,0.2,1.4,0.4,2,0.7C147.8,43.5,147.1,43.8,146.4,43.9L146.4,43.9z M143.9,42.3c0.3,0,0.6,0,0.9-0.1l0.4,0.1H143.9z
			 M141.6,42.3l0.3-0.1c0.3,0,0.6,0,0.9,0.1H141.6z M140.2,43.9c-0.7-0.1-1.4-0.4-2-0.6c0.6-0.3,1.3-0.5,2-0.7V43.9z M139.3,44h-2.4
			v1.2l-0.5,0.3c-0.3-0.2-0.6-0.3-0.8-0.5c0.7-0.6,1.4-1.1,2.1-1.5C138.2,43.7,138.8,43.9,139.3,44L139.3,44z M136,45.8
			c-0.4,0.3-0.8,0.5-1.1,0.8c-0.2,0.2-0.5,0.4-0.7,0.6c-0.1-0.1-0.3-0.3-0.4-0.4c0.4-0.6,0.8-1.1,1.3-1.5l0.1-0.1
			C135.5,45.5,135.7,45.6,136,45.8z M134.2,47.9c0.2,0.2,0.4,0.3,0.6,0.5c-0.3,0.3-0.6,0.6-1,0.9h-0.6
			C133.5,48.8,133.9,48.3,134.2,47.9L134.2,47.9z M135.1,48.6c0.3,0.2,0.6,0.4,0.9,0.6h-1.6C134.7,49,134.9,48.8,135.1,48.6
			L135.1,48.6z M153.8,50.6v-0.5c0.3,0.6,0.5,1.1,0.7,1.7C154.3,51.4,154.1,51,153.8,50.6L153.8,50.6z M152.6,47.6
			c0.1-0.1,0.2-0.2,0.3-0.4c0.6,0.9,1.1,2,1.4,3.1C154,49.3,153.4,48.4,152.6,47.6L152.6,47.6z M153.3,46.9l0.2,0.4L153.3,46.9
			L153.3,46.9z M151.7,45l0.2-0.2c0.5,0.5,0.9,1,1.2,1.6v0.1C152.7,46,152.3,45.5,151.7,45L151.7,45L151.7,45z M151.4,44.4l0.2,0.2
			l-0.2,0.1h-0.1c-0.6-0.5-1.3-1-2-1.4l0.5-0.2C150.4,43.4,151,43.9,151.4,44.4L151.4,44.4z M149.4,42.8c-0.2,0.1-0.4,0.2-0.6,0.3
			c-0.9-0.4-1.9-0.8-2.9-1c0.4-0.1,0.8-0.2,1.3-0.3C148.1,42,148.8,42.4,149.4,42.8L149.4,42.8z M143.3,41L143.3,41
			c1.1,0,2.2,0.2,3.3,0.5c-0.6,0.2-1.2,0.3-1.9,0.3c-0.5-0.1-1-0.1-1.4-0.1l0,0c-0.5,0-1,0-1.4,0.1c-0.6-0.1-1.3-0.2-1.9-0.3
			C141.1,41.2,142.2,41,143.3,41z M139.3,41.7c0.4,0.1,0.8,0.2,1.3,0.3c-1,0.2-2,0.6-2.9,1c-0.2-0.1-0.4-0.2-0.6-0.3
			C137.9,42.4,138.6,42,139.3,41.7L139.3,41.7z M135.2,44.4c0.5-0.5,1-0.9,1.6-1.3l0.5,0.2c-0.7,0.4-1.4,0.9-2,1.4h-0.1l-0.2-0.1
			L135.2,44.4z M134.8,44.9l0.2,0.2l0,0l0,0c-0.5,0.5-0.9,1-1.3,1.5v-0.1C133.9,45.9,134.3,45.4,134.8,44.9L134.8,44.9z M133.3,46.9
			L133.3,46.9c-0.1,0.1-0.2,0.3-0.2,0.4L133.3,46.9z M133.6,47.2c0.1,0.1,0.2,0.3,0.4,0.4c-0.7,0.8-1.3,1.7-1.8,2.7
			C132.5,49.2,133,48.2,133.6,47.2L133.6,47.2z M132.8,50v0.5c-0.2,0.4-0.5,0.8-0.7,1.2C132.3,51.2,132.5,50.6,132.8,50L132.8,50z
			 M132.8,51.4v5.4h0.8v1.5h-0.2c-0.8-1.3-1.3-2.8-1.5-4.4C132.1,53,132.4,52.2,132.8,51.4L132.8,51.4z M135.2,60.6
			c-0.3-0.3-0.6-0.7-0.9-1h1.3v1.1h1.2V62C136.2,61.6,135.7,61.1,135.2,60.6L135.2,60.6z M141.4,64.2v4.6h-1.6v-4.9
			C140.3,64,140.9,64.2,141.4,64.2L141.4,64.2z"/>
	</g>
</g>
</svg>
