<svg xmlns="http://www.w3.org/2000/svg" viewBox="0 0 500 138.61"><defs><style>.cls-1{fill:#32434f;fill-rule:evenodd;}</style></defs><title>dallas-skyline</title><g id="Layer_2" data-name="Layer 2"><g id="Layer_1-2" data-name="Layer 1"><path class="cls-1" d="M494.58,138.61V137h-1v-2.15h-3.92v-1.57h-7.09V116.81H468v2.39h-1.64V108.13h-7.5v-3.75H444.35v16H441v2.73h-2.3V106.26h-2.81v-6.8h-5.16v4.92h-7.26v1.88h-1.87V76h-4.3v4h-6.66V76h-8.61v4h-2.12V59.91h0c0-3.76-.84-6.78-1.86-6.78-.41,0-.78.49-1.09,1.32h-4.62a4.27,4.27,0,0,0-6,0H375.1c-.3-.83-.68-1.32-1.09-1.32-1,0-1.84,3-1.86,6.78h0V127h-4.22V101.34h-4.7V69.48h-25.7V97.66h-4.69V107H329v-4H325.5v4h-.93v9.13h-1.34v-1.84h-1.65V113h-1.47v-5.51h-.75V107h-.27V79.82h-4.37V78.47h-6.48a20.83,20.83,0,0,1-1.36-4.76c-.14-.81-.24-1.66-.33-2.54a.69.69,0,0,0,.42-.61.72.72,0,0,0-.53-.66q-.07-1.14-.12-2.34v0h0v0h-.44v0h0v0c0,.8-.06,1.57-.12,2.34a.73.73,0,0,0-.53.66.69.69,0,0,0,.43.61c-.09.88-.2,1.73-.34,2.54A20.34,20.34,0,0,1,304,78.47h-6.38v1.35h-4.75V131.1h-1.12v-5h-.67V121h-4v-9.15h-5.83V60h-3.77V54.68l-.07-.06h0L275.8,53h0l-.15-.16-.16.16-1.59,1.59h0l-.06.06v2.2h-.28v-.24h-.84V56h-.88v.6h-.76v.24h-.84v-.52h-.64v-.28h-.16v.28h-.67V53.88h-2.58V51.4H265v-.56h-.47V41.4l-.06-.06-1.59-1.59-.16-.15-.15.15-1.59,1.59-.06.06v9.44h-.48v.56h-1.24v2.48h-2.57v3h-.77V55.64h-.32v1.24h-.84V56.6h-1v.28h-.84v-.76h-1v.76h-.34v-2.2l-.07-.06h0L249.85,53l-.15-.16-.16.16L248,54.62h0l-.07.06V60h-3.77V99.14h-3.31v16.45h-2.26v3.27h-1.12V113h-4V77h-3.87V10.55h-1.34V7.79H226V5h-2.44V1.89h-5.92V0h-.45V1.89h-2.63V1.54h-3v.35h-3.46V5h-2.44V7.79H203.4v2.76h-1.34V78.84l-1.38-3.39L200.5,74l-.83-.29-8.29-7.31h-2.26l-8.3,7.31L180,74l-.18,1.43-1.51,3.71-.16,1.59h-.38v.88h-.48V97.72h0v-.53H176v.53H173.5v2.62h-2.2v1h-1.16v-1.05h-1.29V91.88h-9.8v38h-2.13v-34h-1.15V92.3H154.4l-4.88-6.22V62.66a11.69,11.69,0,0,0,2.21-1.74,11.89,11.89,0,0,0,3.49-8.41h0a11.92,11.92,0,0,0-11.89-11.89h0a11.92,11.92,0,0,0-11.89,11.89h0a11.89,11.89,0,0,0,3.49,8.4,12.08,12.08,0,0,0,1.88,1.53V88.5h-7.15v40.08H129v3.17h-.88V110.63H117.71l-.53-1.36V81.56h-.11l-3.91-22.88h-8.64l-3.91,22.88h-.1V99.14H92.32v20.27h-.84V127H90.29V122H85.22v-6.42H78.13V122h-4v-7H69.68V99H64.36V84.68H47.65v3.66H44.77v4.44H36.15v8.75H27.93v7.7H23V122h-9v2.7H2.45v14H0l2.38-.12H500l-.2.12ZM305.76,73.78c.14-.8.25-1.64.33-2.5h0c.09.86.2,1.7.34,2.5a21.36,21.36,0,0,0,1.31,4.69h-3.31A21.92,21.92,0,0,0,305.76,73.78ZM264,50.49,263,49.44,264,48.38ZM263,46.26l1.05-1v2.11Zm0-3.18L264,42v2.11Zm-1.68-1,1.05,1-1.05,1.06Zm0,3.18,1.05,1-1.05,1.06Zm0,3.17,1.05,1.06-1.05,1.05Zm-121.5,21h1.61v6.08h-1.61Zm6.36,11.13V76H147V80.5Zm.81-5h-.81V69.37H147Zm-7.17.56h1.61V80.5h-1.61ZM275.53,60l.12-.12.12.12Zm-.74-1.61v-.83l.86-.86L276.92,58l-1.27,1.27Zm.55,1.18-.44.43h-.11V59Zm-25.33,0,.55-.55v1h-.12Zm.55-1.18-.86.86L248.42,58l1.28-1.28.86.86ZM249.82,60h-.24l.12-.12Zm26.57,0-.43-.43L277,58.48V60Zm.63-2.55L276,56.36,277,55.3Zm-1.37-3.92,1.27,1.27-1.27,1.28-1.28-1.28Zm-1.37,1.8,1.06,1.06-.55.55v0h-.51Zm-23.21,1.58h-.51v0l-.55-.55,1.06-1.06ZM249.7,53.5,251,54.77l-1.27,1.28-1.28-1.28Zm-1.37,1.8,1.06,1.06-1.06,1.06Zm0,3.18,1.06,1.06L249,60h-.62ZM147,68.8h-.81V64.06c.27-.07.54-.14.81-.23ZM134,58.7v.5l-.33-.5Zm19,0c-.1.17-.22.34-.33.5v-.5Zm-6.82,4H147v.66q-.4.14-.81.24Zm-6.36,0h1.61v1.1a10.8,10.8,0,0,1-1.61-.39Zm11.63-2.11a11.53,11.53,0,0,1-1.92,1.55V60.76h1.53V59.64h1.28A11.87,11.87,0,0,1,151.44,60.63Zm1.83-2.38h-.22V56.76h.82V51.39a7.5,7.5,0,0,1,.86,2.5A11.43,11.43,0,0,1,153.27,58.25Zm-4.42-9v-1.9h.58a11.35,11.35,0,0,1,1.72,1,11,11,0,0,1-1.4.87Zm.88-2.22v-.73l.49-.26a10.43,10.43,0,0,1,1.23.93c.23.2.45.4.66.62l-.62.53A12.4,12.4,0,0,0,149.73,47Zm0-1.19v-.1l.1.05Zm-12.81,0-.1,0,.1-.05Zm0,.46V47a12.88,12.88,0,0,0-1.75,1.09c-.22-.17-.43-.35-.62-.53a7.65,7.65,0,0,1,.65-.62,10.43,10.43,0,0,1,1.23-.93Zm.3,1.05h.58v1.9h-.9a11.72,11.72,0,0,1-1.4-.87A11.35,11.35,0,0,1,137.22,47.34Zm13.35,1.9c.32-.19.63-.4.92-.61.24.19.48.4.7.61Zm1.25-.87c.19-.16.38-.32.56-.49a9.79,9.79,0,0,1,1,1.36h-.65A11.27,11.27,0,0,0,151.82,48.37Zm-.1-1.72a11.63,11.63,0,0,0-1.11-.85c.27-.16.52-.33.77-.51l.07.06a10.73,10.73,0,0,1,1.33,1.53c-.12.14-.25.28-.38.41C152.18,47.07,152,46.86,151.72,46.65Zm-1.49-1.1-.5-.29V44.08h-2.39a11.79,11.79,0,0,0,1.58-.55A12.25,12.25,0,0,1,151.07,45Q150.67,45.3,150.23,45.55Zm-3.81-1.65V42.56a12,12,0,0,1,2,.73A12.7,12.7,0,0,1,146.42,43.9Zm-2.52-1.61c.29,0,.57,0,.85-.06l.35.06Zm-2.34,0,.34-.06c.28,0,.56.05.85.06Zm-1.33,1.61a12.7,12.7,0,0,1-2-.61,12.33,12.33,0,0,1,2-.73Zm-.92.18h-2.39v1.18l-.5.29a9.87,9.87,0,0,1-.83-.54,11.81,11.81,0,0,1,2.14-1.48A12.29,12.29,0,0,0,139.31,44.08ZM136,45.8a11.63,11.63,0,0,0-1.11.85c-.23.21-.46.42-.68.64-.13-.13-.26-.27-.38-.41a10.8,10.8,0,0,1,1.34-1.53l.07-.06A8.38,8.38,0,0,0,136,45.8Zm-1.77,2.08c.18.17.37.33.56.49-.33.27-.65.57-1,.87h-.64A9,9,0,0,1,134.27,47.88Zm.9.75c.29.21.59.42.91.61h-1.62A8.42,8.42,0,0,1,135.17,48.63Zm18.7,2v-.55a8.82,8.82,0,0,1,.66,1.73A9.82,9.82,0,0,0,153.87,50.61Zm-1.19-3c.12-.12.23-.24.34-.37a10.79,10.79,0,0,1,1.42,3.08A10.34,10.34,0,0,0,152.68,47.59Zm.65-.72.23.43-.26-.4ZM151.71,45l.19-.15a10.61,10.61,0,0,1,1.2,1.62l0,.06a11.07,11.07,0,0,0-1.32-1.5l0,0Zm-.27-.63.18.18-.16.13-.06,0a12.07,12.07,0,0,0-2-1.43l.49-.25A11.67,11.67,0,0,1,151.44,44.4Zm-2-1.58a5.52,5.52,0,0,1-.55.26,12.48,12.48,0,0,0-2.86-1,12.85,12.85,0,0,0,1.26-.3A11.65,11.65,0,0,1,149.48,42.82ZM143.32,41h0a11.6,11.6,0,0,1,3.3.48,12.58,12.58,0,0,1-1.87.31,13.55,13.55,0,0,0-1.43-.08h0a11.32,11.32,0,0,0-1.43.09,14,14,0,0,1-1.87-.32A11.6,11.6,0,0,1,143.32,41Zm-4,.72a12.85,12.85,0,0,0,1.26.3,12.48,12.48,0,0,0-2.86,1,5.52,5.52,0,0,1-.55-.26A11.65,11.65,0,0,1,139.32,41.75Zm-4.11,2.65a11,11,0,0,1,1.57-1.32l.49.25a12.07,12.07,0,0,0-2,1.43l-.06,0-.16-.13Zm-.46.48.19.15h0l0,0a11.15,11.15,0,0,0-1.33,1.5l0-.06A11.32,11.32,0,0,1,134.75,44.88Zm-1.42,2,0,0c-.09.13-.17.27-.25.4Zm.3.35a4,4,0,0,0,.35.37,10.13,10.13,0,0,0-1.77,2.71A10.79,10.79,0,0,1,133.63,47.22Zm-.85,2.84v.55a9.82,9.82,0,0,0-.66,1.18A9.5,9.5,0,0,1,132.78,50.06Zm0,1.33v5.37h.82v1.49h-.22a11.43,11.43,0,0,1-1.46-4.36A7.73,7.73,0,0,1,132.78,51.39Zm2.43,9.24a11.75,11.75,0,0,1-.88-1h1.27v1.12h1.2V62A11.14,11.14,0,0,1,135.21,60.63Zm6.21,3.62V68.8h-1.61V63.88A12.15,12.15,0,0,0,141.42,64.25Z"/></g></g></svg>