<svg xmlns="http://www.w3.org/2000/svg" viewBox="0 0 101.16 88.66"><defs><style>.cls-1{fill:none;stroke:#32434f;stroke-width:4px;}</style></defs><title>settings-icon</title><g id="Layer_2" data-name="Layer 2"><g id="Icons"><path class="cls-1" d="M67.66,63.05A33.58,33.58,0,1,1,35.59,19.48"/><path class="cls-1" d="M35.6,19.45a33.87,33.87,0,0,1,7.17.77"/><path class="cls-1" d="M54.81,58.23c-1.44,16.1-9.49,28.43-19.21,28.43-10.73,0-19.44-15-19.44-33.6S24.87,19.45,35.6,19.45"/><line class="cls-1" x1="35.6" y1="19.45" x2="35.6" y2="86.66"/><path class="cls-1" d="M44.12,41.21H4.19a33.2,33.2,0,0,0,0,23.69H67"/><path class="cls-1" d="M99.16,35.36V27.27L92,26.67a22,22,0,0,0-2.84-7.34l4.81-5.68L88.22,7.94l-5.51,4.65a22,22,0,0,0-7.19-3.18L74.9,2H66.81l-.6,7.19A21.81,21.81,0,0,0,58.87,12L53.2,7.22l-5.72,5.72,4.65,5.5A22.12,22.12,0,0,0,49,25.64l-7.41.62v8.09l7.19.59a21.78,21.78,0,0,0,2.83,7.35L46.76,48l5.72,5.72L58,49a21.93,21.93,0,0,0,7.2,3.19l.62,7.41h8.09l.6-7.19a22,22,0,0,0,7.34-2.84l5.67,4.8,5.72-5.71-4.66-5.51A21.84,21.84,0,0,0,91.75,36Z"/><path class="cls-1" d="M82.29,30.81A11.94,11.94,0,1,1,70.35,18.87,11.95,11.95,0,0,1,82.29,30.81Z"/></g></g></svg>