<svg xmlns="http://www.w3.org/2000/svg" viewBox="0 0 102.9 103.01"><defs><style>.cls-1{fill:none;stroke:#32434f;stroke-width:4px;}</style></defs><title>vector-icon</title><g id="Layer_2" data-name="Layer 2"><g id="Icons"><path class="cls-1" d="M39.85,37.31c0,2.52-.17,5.14-.42,7.83A86.66,86.66,0,0,1,35.92,63c4.2,1.53,8.22,5.87,10.36,11.84a24.23,24.23,0,0,1,1.42,7.84h3v-.15"/><path class="cls-1" d="M52.16,82.57v.15h3a24.23,24.23,0,0,1,1.42-7.84C58.75,68.91,62.77,64.57,67,63a86.66,86.66,0,0,1-3.51-17.9c-.25-2.69-.39-5.31-.42-7.83"/><polyline class="cls-1" points="38.67 7.52 38.67 29.24 64.22 29.24 64.22 7.52"/><rect class="cls-1" x="37.65" y="28.76" width="27.59" height="7.97"/><line class="cls-1" x1="65.25" y1="28.76" x2="37.65" y2="28.76"/><path class="cls-1" d="M46.89,96.77A44.63,44.63,0,0,1,6.83,52.38"/><path class="cls-1" d="M96.07,52.38A44.63,44.63,0,0,1,56.16,96.75"/><line class="cls-1" x1="55.64" y1="96.69" x2="92.61" y2="96.69"/><line class="cls-1" x1="10.64" y1="96.69" x2="47.61" y2="96.69"/><rect class="cls-1" x="2" y="44.06" width="8.64" height="8.63"/><rect class="cls-1" x="92.26" y="44.06" width="8.64" height="8.63"/><rect class="cls-1" x="47.13" y="92.37" width="8.64" height="8.64"/><rect class="cls-1" x="2.41" y="92.37" width="8.63" height="8.64"/><rect class="cls-1" x="91.85" y="92.37" width="8.64" height="8.64"/><line class="cls-1" x1="51.45" y1="82.77" x2="51.45" y2="57.27"/><circle class="cls-1" cx="51.45" cy="54.36" r="3.25"/><line class="cls-1" x1="57.78" y1="23.17" x2="57.78" y2="7.5"/><line class="cls-1" x1="57.78" y1="4.06" x2="57.78"/></g></g></svg>