<svg xmlns="http://www.w3.org/2000/svg" viewBox="0 0 98.49 98.09"><defs><style>.cls-1,.cls-2{fill:none;stroke:#32434f;stroke-width:4px;}.cls-2{stroke-miterlimit:10;}</style></defs><title>web-icon</title><g id="Layer_2" data-name="Layer 2"><g id="Icons"><polyline class="cls-1" points="41.12 42.79 53.89 42.79 53.9 30.01"/><line class="cls-1" x1="53.14" y1="42.03" x2="39.17" y2="28.06"/><polyline class="cls-1" points="31.02 19.01 18.24 19.02 18.24 31.79"/><line class="cls-1" x1="18.78" y1="19.55" x2="32.97" y2="33.74"/><path class="cls-1" d="M96.4,59.77V4.58A2.59,2.59,0,0,0,93.81,2H4.64A2.59,2.59,0,0,0,2.05,4.58V59.77"/><polyline class="cls-1" points="55.7 51.22 10.43 51.22 10.43 10.5 87.92 10.5 87.92 37.63"/><path class="cls-1" d="M55.7,59.71H2v8A3.48,3.48,0,0,0,5.09,70.9H55.7"/><path class="cls-1" d="M89.2,70.9h4.85c1.53,0,2.44-1.57,2.44-3.1V59.71H89.2"/><path class="cls-1" d="M38.75,71c-.16,2,.19,6.38-.24,8.53-.39,2-.66,2-1.71,2.61-.59.33-1.58.78-2.41,1.14h0"/><line class="cls-1" x1="31.8" y1="83.08" x2="55.7" y2="83.08"/><rect class="cls-2" x="61.37" y="43.9" width="26.51" height="52.19" rx="1.66" ry="1.66"/><line class="cls-2" x1="87.31" y1="87.82" x2="61.93" y2="87.82"/><line class="cls-2" x1="61.93" y1="51.75" x2="87.31" y2="51.75"/></g></g></svg>